<svg width="123" height="111" fill="none" xmlns="http://www.w3.org/2000/svg"><path d="M43.83 18.137a6 6 0 012.195-8.197L61.51 1a6 6 0 018.197 2.196l51.769 89.668a6 6 0 01-2.196 8.196L103.795 110a6 6 0 01-8.196-2.196l-51.77-89.667z" fill="#fff" fill-opacity=".6"/><path d="M52.77 3.196A6 6 0 0160.965 1L76.45 9.94a6 6 0 012.196 8.197l-51.77 89.667A6 6 0 0118.681 110l-15.485-8.94A6 6 0 011 92.863L52.77 3.197zm-.985 75.498a4 4 0 014-4h9.929a4 4 0 014 4v9.928a4 4 0 01-4 4h-9.929a4 4 0 01-4-4v-9.928z" fill="#fff"/></svg>