<svg width="384" height="90" fill="none" xmlns="http://www.w3.org/2000/svg"><path d="M35.684 15.168a6 6 0 012.196-8.196L48.562.805A6 6 0 0156.758 3l41.047 71.095a6 6 0 01-2.196 8.196l-10.682 6.167a6 6 0 01-8.196-2.196L35.684 15.168z" fill="#fff" fill-opacity=".6"/><path d="M41.851 3.001A6 6 0 0150.048.805l10.681 6.167a6 6 0 012.197 8.196L21.879 86.263a6 6 0 01-8.196 2.196L3 82.292a6 6 0 01-2.196-8.196L41.85 3zm-.244 61.262a4 4 0 014-4h6.6a4 4 0 014 4v6.6a4 4 0 01-4 4h-6.6a4 4 0 01-4-4v-6.6zm76.918 5.542v-36.8h6.72v6.64c1.813-5.067 5.493-7.6 11.04-7.6 7.627 0 11.44 4.693 11.44 14.08v23.68h-6.72v-21.76c0-3.574-.587-6.16-1.76-7.76-1.12-1.653-2.933-2.48-5.44-2.48-5.707 0-8.56 4.106-8.56 12.32v19.68h-6.72zm60.281-36.8h6.72v38.32c0 6.133-1.6 10.56-4.8 13.28-2.453 2.133-5.76 3.2-9.92 3.2-4.32 0-7.707-1.014-10.16-3.04-2.72-2.187-4.107-5.387-4.16-9.6h6.56c.053 2.293.773 4.026 2.16 5.2 1.387 1.227 3.28 1.84 5.68 1.84 2.72 0 4.72-.853 6-2.56 1.28-1.653 1.92-4.267 1.92-7.84v-8.72c-1.813 5.12-5.547 7.68-11.2 7.68-3.627 0-6.4-1.28-8.32-3.84-1.92-2.56-2.88-6-2.88-10.32v-23.6h6.72v22.32c0 6.4 2.427 9.6 7.28 9.6 2.667 0 4.72-1.014 6.16-3.04 1.493-2.027 2.24-4.907 2.24-8.64v-20.24zm22.365 36.8l-10.32-36.8h6.88l6.56 26.96 7.04-26.96h6.8l7.12 26.96 6.48-26.96h6.96l-10.4 36.8h-5.84l-7.76-28.64-7.68 28.64h-5.84zm60.981-37.76c7.626 0 11.44 4.693 11.44 14.08v23.68h-6.72v-21.76c0-3.574-.587-6.16-1.76-7.76-1.12-1.653-2.934-2.48-5.44-2.48-5.707 0-8.56 4.106-8.56 12.32v19.68h-6.72v-56h6.72v25.84c1.813-5.067 5.493-7.6 11.04-7.6zm48.753 16.72c0 1.6-.08 3.12-.24 4.56h-24c.054 3.733.88 6.613 2.48 8.64 1.654 2.026 4.054 3.04 7.2 3.04 4.214 0 6.854-1.92 7.92-5.76h6.08c-.586 3.68-2.053 6.533-4.4 8.56-2.346 1.973-5.546 2.96-9.6 2.96-5.226 0-9.226-1.68-12-5.04-2.773-3.36-4.16-8.107-4.16-14.24 0-6.133 1.387-10.907 4.16-14.32 2.774-3.413 6.64-5.12 11.6-5.12 4.8 0 8.48 1.52 11.04 4.56 2.614 3.04 3.92 7.093 3.92 12.16zm-24.24-.64h17.76c0-3.52-.746-6.187-2.24-8-1.44-1.813-3.546-2.72-6.32-2.72-2.826 0-5.04.933-6.64 2.8-1.6 1.867-2.453 4.507-2.56 7.92zm31.235 21.68v-36.8h6.72v8.48c.533-2.88 1.573-5.093 3.12-6.64 1.6-1.547 3.573-2.32 5.92-2.32.533 0 1.227.053 2.08.16v6.88c-.64-.107-1.333-.16-2.08-.16-6.027 0-9.04 4.587-9.04 13.76v16.64h-6.72zm51.365-21.04c0 1.6-.08 3.12-.24 4.56h-24c.053 3.733.88 6.613 2.48 8.64 1.653 2.026 4.053 3.04 7.2 3.04 4.213 0 6.853-1.92 7.92-5.76h6.08c-.587 3.68-2.053 6.533-4.4 8.56-2.347 1.973-5.547 2.96-9.6 2.96-5.227 0-9.227-1.68-12-5.04-2.773-3.36-4.16-8.107-4.16-14.24 0-6.133 1.387-10.907 4.16-14.32 2.773-3.413 6.64-5.12 11.6-5.12 4.8 0 8.48 1.52 11.04 4.56 2.613 3.04 3.92 7.093 3.92 12.16zm-24.24-.64h17.76c0-3.52-.747-6.187-2.24-8-1.44-1.813-3.547-2.72-6.32-2.72-2.827 0-5.04.933-6.64 2.8-1.6 1.867-2.453 4.507-2.56 7.92zm37.054 20.56c-1.12 1.12-2.48 1.68-4.08 1.68s-2.96-.56-4.08-1.68c-1.066-1.12-1.6-2.48-1.6-4.08 0-1.547.534-2.88 1.6-4 1.12-1.12 2.48-1.68 4.08-1.68s2.96.56 4.08 1.68c1.12 1.12 1.68 2.453 1.68 4 0 1.546-.56 2.906-1.68 4.08z" fill="#fff"/></svg>