<svg width="675" height="104" viewBox="0 0 675 104" fill="none" xmlns="http://www.w3.org/2000/svg">
<path d="M0.648775 92.1504C0.179579 93.449 0.8519 94.882 2.15045 95.3512L23.3115 102.997C24.61 103.466 26.0431 102.794 26.5122 101.496C26.9814 100.197 26.3091 98.764 25.0106 98.2948L6.20078 91.4983L12.9972 72.6885C13.4664 71.39 12.7941 69.9569 11.4955 69.4878C10.197 69.0186 8.76396 69.6909 8.29476 70.9894L0.648775 92.1504ZM674.022 90.7184C541.685 31.4413 438.514 0.925407 335.907 0.550422C233.287 0.175387 131.505 29.9495 1.93816 90.7367L4.06184 95.2633C133.311 34.6253 234.318 5.17919 335.889 5.55039C437.474 5.92164 539.895 36.1184 671.978 95.2816L674.022 90.7184Z" fill="#611DF1"/>
</svg>
