<svg width="854" height="430" viewBox="0 0 854 430" fill="none" xmlns="http://www.w3.org/2000/svg">
<path d="M850.828 429.828C852.209 429.828 853.328 428.709 853.328 427.328L853.328 404.828C853.328 403.447 852.209 402.328 850.828 402.328C849.447 402.328 848.328 403.447 848.328 404.828L848.328 424.828L828.328 424.828C826.947 424.828 825.828 425.947 825.828 427.328C825.828 428.709 826.947 429.828 828.328 429.828L850.828 429.828ZM424.404 4.43989L849.06 429.096L852.596 425.56L427.94 0.904352L424.404 4.43989Z" fill="#611DF1"/>
<path d="M0.500002 426.656C0.500002 428.036 1.61929 429.156 3 429.156H25.5C26.8807 429.156 28 428.036 28 426.656C28 425.275 26.8807 424.156 25.5 424.156L5.5 424.156L5.5 404.156C5.5 402.775 4.38071 401.656 3 401.656C1.61929 401.656 0.500002 402.775 0.500002 404.156V426.656ZM425.888 0.232233L1.23224 424.888L4.76777 428.424L429.424 3.76777L425.888 0.232233Z" fill="#611DF1"/>
</svg>
