<svg width="123" height="111" viewBox="0 0 123 111" fill="none" xmlns="http://www.w3.org/2000/svg">
<path d="M43.8291 18.1366C42.1723 15.2668 43.1555 11.5973 46.0253 9.94041L61.5104 1.00004C64.3802 -0.656814 68.0497 0.326436 69.7066 3.19619L121.476 92.8635C123.133 95.7333 122.15 99.4028 119.28 101.06L103.795 110C100.925 111.657 97.2554 110.674 95.5986 107.804L43.8291 18.1366Z" fill="white" fill-opacity="0.6"/>
<path d="M52.7695 3.1962C54.4263 0.32644 58.0959 -0.656815 60.9656 1.00004L76.4508 9.94041C79.3206 11.5973 80.3038 15.2668 78.647 18.1366L26.8775 107.804C25.2207 110.674 21.5511 111.657 18.6814 110L3.19619 101.06C0.326439 99.4028 -0.656815 95.7333 1.00004 92.8635L52.7695 3.1962Z" fill="white"/>
<path d="M51.7854 78.694C51.7854 76.4848 53.5763 74.694 55.7854 74.694H65.7138C67.923 74.694 69.7138 76.4848 69.7138 78.694V88.6224C69.7138 90.8315 67.923 92.6224 65.7138 92.6224H55.7854C53.5763 92.6224 51.7854 90.8315 51.7854 88.6224V78.694Z" fill="white"/>
</svg>
