<svg width="384" height="90" viewBox="0 0 384 90" fill="none" xmlns="http://www.w3.org/2000/svg">
<path d="M35.6841 15.1682C34.0273 12.2984 35.0105 8.6289 37.8803 6.97205L48.5622 0.804849C51.432 -0.852006 55.1015 0.131248 56.7584 3.001L97.8049 74.0956C99.4617 76.9654 98.4785 80.6349 95.6087 82.2918L84.9268 88.459C82.057 90.1158 78.3875 89.1326 76.7306 86.2628L35.6841 15.1682Z" fill="white" fill-opacity="0.6"/>
<path d="M41.8513 3.001C43.5082 0.131244 47.1777 -0.852003 50.0475 0.804851L60.7294 6.97205C63.5992 8.62891 64.5824 12.2984 62.9256 15.1682L21.8791 86.2628C20.2222 89.1326 16.5527 90.1158 13.6829 88.459L3.001 82.2918C0.131243 80.6349 -0.852003 76.9654 0.80485 74.0956L41.8513 3.001Z" fill="white"/>
<path d="M41.6068 64.2631C41.6068 62.054 43.3976 60.2631 45.6068 60.2631H52.2074C54.4165 60.2631 56.2074 62.054 56.2074 64.2631V70.8638C56.2074 73.0729 54.4165 74.8638 52.2074 74.8638H45.6068C43.3976 74.8638 41.6068 73.0729 41.6068 70.8638V64.2631Z" fill="white"/>
<path d="M118.525 69.8048V33.0048H125.245V39.6448C127.058 34.5781 130.738 32.0448 136.285 32.0448C143.912 32.0448 147.725 36.7381 147.725 46.1248V69.8048H141.005V48.0448C141.005 44.4715 140.418 41.8848 139.245 40.2848C138.125 38.6315 136.312 37.8048 133.805 37.8048C128.098 37.8048 125.245 41.9115 125.245 50.1248V69.8048H118.525Z" fill="white"/>
<path d="M178.806 33.0048H185.526V71.3248C185.526 77.4581 183.926 81.8848 180.726 84.6048C178.273 86.7381 174.966 87.8048 170.806 87.8048C166.486 87.8048 163.099 86.7915 160.646 84.7648C157.926 82.5782 156.539 79.3781 156.486 75.1648H163.046C163.099 77.4581 163.819 79.1915 165.206 80.3648C166.593 81.5915 168.486 82.2048 170.886 82.2048C173.606 82.2048 175.606 81.3515 176.886 79.6448C178.166 77.9915 178.806 75.3781 178.806 71.8048V63.0848C176.993 68.2048 173.259 70.7648 167.606 70.7648C163.979 70.7648 161.206 69.4848 159.286 66.9248C157.366 64.3648 156.406 60.9248 156.406 56.6048V33.0048H163.126V55.3248C163.126 61.7248 165.553 64.9248 170.406 64.9248C173.073 64.9248 175.126 63.9115 176.566 61.8848C178.059 59.8581 178.806 56.9781 178.806 53.2448V33.0048Z" fill="white"/>
<path d="M201.171 69.8048L190.851 33.0048H197.731L204.291 59.9648L211.331 33.0048H218.131L225.251 59.9648L231.731 33.0048H238.691L228.291 69.8048H222.451L214.691 41.1648L207.011 69.8048H201.171Z" fill="white"/>
<path d="M262.152 32.0448C269.778 32.0448 273.592 36.7381 273.592 46.1248V69.8048H266.872V48.0448C266.872 44.4715 266.285 41.8848 265.112 40.2848C263.992 38.6315 262.178 37.8048 259.672 37.8048C253.965 37.8048 251.112 41.9115 251.112 50.1248V69.8048H244.392V13.8048H251.112V39.6448C252.925 34.5781 256.605 32.0448 262.152 32.0448Z" fill="white"/>
<path d="M310.905 48.7648C310.905 50.3648 310.825 51.8848 310.665 53.3248H286.665C286.719 57.0581 287.545 59.9381 289.145 61.9648C290.799 63.9915 293.199 65.0048 296.345 65.0048C300.559 65.0048 303.199 63.0848 304.265 59.2448H310.345C309.759 62.9248 308.292 65.7781 305.945 67.8048C303.599 69.7781 300.399 70.7648 296.345 70.7648C291.119 70.7648 287.119 69.0848 284.345 65.7248C281.572 62.3648 280.185 57.6181 280.185 51.4848C280.185 45.3515 281.572 40.5781 284.345 37.1648C287.119 33.7515 290.985 32.0448 295.945 32.0448C300.745 32.0448 304.425 33.5648 306.985 36.6048C309.599 39.6448 310.905 43.6981 310.905 48.7648ZM286.665 48.1248H304.425C304.425 44.6048 303.679 41.9381 302.185 40.1248C300.745 38.3115 298.639 37.4048 295.865 37.4048C293.039 37.4048 290.825 38.3381 289.225 40.2048C287.625 42.0715 286.772 44.7115 286.665 48.1248Z" fill="white"/>
<path d="M317.9 69.8048V33.0048H324.62V41.4848C325.153 38.6048 326.193 36.3915 327.74 34.8448C329.34 33.2981 331.313 32.5248 333.66 32.5248C334.193 32.5248 334.887 32.5781 335.74 32.6848V39.5648C335.1 39.4581 334.407 39.4048 333.66 39.4048C327.633 39.4048 324.62 43.9915 324.62 53.1648V69.8048H317.9Z" fill="white"/>
<path d="M369.265 48.7648C369.265 50.3648 369.185 51.8848 369.025 53.3248H345.025C345.078 57.0581 345.905 59.9381 347.505 61.9648C349.158 63.9915 351.558 65.0048 354.705 65.0048C358.918 65.0048 361.558 63.0848 362.625 59.2448H368.705C368.118 62.9248 366.652 65.7781 364.305 67.8048C361.958 69.7781 358.758 70.7648 354.705 70.7648C349.478 70.7648 345.478 69.0848 342.705 65.7248C339.932 62.3648 338.545 57.6181 338.545 51.4848C338.545 45.3515 339.932 40.5781 342.705 37.1648C345.478 33.7515 349.345 32.0448 354.305 32.0448C359.105 32.0448 362.785 33.5648 365.345 36.6048C367.958 39.6448 369.265 43.6981 369.265 48.7648ZM345.025 48.1248H362.785C362.785 44.6048 362.038 41.9381 360.545 40.1248C359.105 38.3115 356.998 37.4048 354.225 37.4048C351.398 37.4048 349.185 38.3381 347.585 40.2048C345.985 42.0715 345.132 44.7115 345.025 48.1248Z" fill="white"/>
<path d="M382.079 68.6848C380.959 69.8048 379.599 70.3648 377.999 70.3648C376.399 70.3648 375.039 69.8048 373.919 68.6848C372.853 67.5648 372.319 66.2048 372.319 64.6048C372.319 63.0581 372.853 61.7248 373.919 60.6048C375.039 59.4848 376.399 58.9248 377.999 58.9248C379.599 58.9248 380.959 59.4848 382.079 60.6048C383.199 61.7248 383.759 63.0581 383.759 64.6048C383.759 66.1515 383.199 67.5115 382.079 68.6848Z" fill="white"/>
</svg>
